<svg width="0" height="0" xmlns="http://www.w3.org/2000/svg" style="position:absolute" aria-hidden="true">
  <defs>
    <!-- Reusable blue icon symbols. Reference with <use href="social-icons.svg#icon-id"/> -->
    <symbol id="icon-github" viewBox="0 0 24 24">
      <path fill="#38BDF8" d="M12 0C5.37 0 0 5.37 0 12c0 5.31 3.435 9.795 8.205 11.385.6.105.825-.255.825-.57
        0-.285-.015-1.23-.015-2.235-3.015.555-3.795-.735-4.035-1.41-.135-.345-.72-1.41-1.23-1.695
        -.42-.225-1.02-.78-.015-.795.945-.015 1.62.87 1.845 1.23 1.08 1.815 2.805 1.305 3.495.99
        .105-.78.42-1.305.765-1.605-2.67-.3-5.46-1.335-5.46-5.925 0-1.305.465-2.385 1.23-3.225
        -.12-.3-.54-1.53.12-3.18 0 0 1.005-.315 3.3 1.23.96-.27 1.98-.405 3-.405s2.04.135 3
        .405c2.295-1.56 3.3-1.23 3.3-1.23.66 1.65.24 2.88.12 3.18.765.84 1.23 1.905
        1.23 3.225 0 4.605-2.805 5.625-5.475 5.925.435.375.81 1.095.81 2.22 0
        1.605-.015 2.895-.015 3.3 0 .315.225.69.825.57A12.02 12.02 0 0 0 24 12C24
        5.37 18.63 0 12 0Z"/>
    </symbol>

    <symbol id="icon-linkedin" viewBox="0 0 24 24">
      <path fill="#1E90FF" d="M22.23 0H1.77C.792 0 0 .774 0 1.729v20.542C0 23.227.792 24
        1.77 24h20.46c.978 0 1.77-.773 1.77-1.729V1.729C24 .774 23.208 0 22.23 0ZM7.12
        20.452H3.56V9h3.56v11.452ZM5.34 7.434a2.06 2.06 0 1 1 0-4.12 2.06 2.06 0 0 1
        0 4.12ZM20.452 20.452h-3.554v-5.569c0-1.328-.027-3.037-1.852-3.037-1.853
        0-2.137 1.447-2.137 2.941v5.665H9.355V9h3.414v1.561h.049c.476-.9 1.637-1.852
        3.37-1.852 3.601 0 4.264 2.37 4.264 5.455v6.288Z"/>
    </symbol>

    <symbol id="icon-x" viewBox="0 0 24 24">
      <path fill="#3B82F6" d="M18.244 2.25h3.308l-7.227 8.26 8.502 11.24H16.17l-5.214-6.817L4.99
        21.75H1.68l7.73-8.835L1.254 2.25H8.08l4.713 6.231 5.451-6.231Zm-1.161 17.52h1.833L7.045
        4.126H5.078L17.083 19.77Z"/>
    </symbol>

    <symbol id="icon-instagram" viewBox="0 0 24 24">
      <path fill="#00BFFF" d="M12 2.163c3.204 0 3.584.012 4.85.07 3.252.148 4.771
        1.691 4.919 4.919.058 1.265.069 1.645.069 4.849 0 3.205-.012
        3.584-.069 4.849-.149 3.225-1.664 4.771-4.919 4.919-1.266.058-1.644.07-4.85.07
        -3.204 0-3.584-.012-4.849-.07-3.26-.149-4.771-1.699-4.919-4.92-.058-1.265-.07
        -1.644-.07-4.849 0-3.204.013-3.583.07-4.849.149-3.227 1.664-4.771
        4.919-4.919 1.266-.057 1.645-.069 4.849-.069ZM12 0C8.741 0 8.332.014
        7.052.072 2.695.272.273 2.69.073 7.052.014 8.333 0 8.741 0
        12c0 3.259.014 3.668.072 4.948.2 4.358 2.618 6.78 6.98 6.98C8.332
        23.986 8.741 24 12 24c3.259 0 3.668-.014 4.948-.072 4.354-.2
        6.782-2.618 6.979-6.98.059-1.28.073-1.689.073-4.948
        0-3.259-.014-3.667-.072-4.948-.196-4.354-2.617-6.78-6.979-6.98C15.668.014
        15.259 0 12 0Zm0 5.838a6.162 6.162 0 1 0 0 12.324 6.162 6.162 0 0
        0 0-12.324ZM12 16a4 4 0 1 1 0-8 4 4 0 0 1 0 8Zm6.406-11.845a1.44
        1.44 0 1 0 0 2.881 1.44 1.44 0 0 0 0-2.881Z"/>
    </symbol>

    <symbol id="icon-mail" viewBox="0 0 24 24">
      <path fill="#38BDF8" d="M1.5 4.5h21a1.5 1.5 0 0 1 1.5 1.5v12a1.5 1.5 0 0
        1-1.5 1.5h-21A1.5 1.5 0 0 1 0 18V6a1.5 1.5 0 0 1 1.5-1.5Zm.6 1.9L12
        13.25l9.9-6.85H2.1ZM22.5 8.35l-9.94 6.87a1 1 0 0 1-1.12 0L1.5
        8.35V18h21V8.35Z"/>
    </symbol>

    <symbol id="icon-globe" viewBox="0 0 24 24">
      <path fill="#1E90FF" d="M12 0a12 12 0 1 0 0 24 12 12 0 0 0 0-24Zm8.94
        10.5h-3.55c-.13-2.1-.6-4.04-1.34-5.6a9.02 9.02 0 0 1 4.89 5.6ZM12
        2.1c.94 1.26 1.87 3.55 2.14 6.9H9.86c.27-3.35 1.2-5.64 2.14-6.9ZM3.06
        10.5A9.02 9.02 0 0 1 7.95 4.9c-.74 1.56-1.21 3.5-1.34 5.6H3.06Zm0
        3h3.55c.13 2.1.6 4.04 1.34 5.6a9.02 9.02 0 0 1-4.89-5.6ZM12
        21.9c-.94-1.26-1.87-3.55-2.14-6.9h4.28c-.27 3.35-1.2
        5.64-2.14 6.9Zm2.05-9.4H9.95c.02-.53.05-1.03.1-1.5h3.9c.05.47.08.97.1
        1.5Zm1.5 3.4c.13-2.1.6-4.04 1.34-5.6h3.55a9.02 9.02 0 0 1-4.89
        5.6Z"/>
    </symbol>

    <symbol id="icon-kofi" viewBox="0 0 24 24">
      <path fill="#FF5E5B" d="M23.88 7.34c-.45-2.13-2.18-3.77-4.34-4.04-.4-.05-3.59-.3-7.51-.3-3.93 0-7.11.25-7.51.3-2.16.27-3.89 1.91-4.35 4.04C-.07 8.97 0 12.74 0 13.04c0 .3.07 4.07.17 5.7.46 2.13 2.19 3.77 4.35 4.04.4.05 3.58.3 7.51.3 3.92 0 7.11-.25 7.51-.3 2.16-.27 3.89-1.91 4.34-4.04.11-1.63.18-5.4.18-5.7 0-.3-.07-4.07-.18-5.7ZM9.43 16.55V8.83l6.06 3.86-6.06 3.86Z"/>
    </symbol>

    <symbol id="icon-buymeacoffee" viewBox="0 0 24 24">
      <path fill="#FFDD00" d="M20.4 4.34a.6.6 0 0 0-.5-.42l-1.97-.13c-.32-.02-.6-.23-.72-.53l-.69-1.78a.6.6 0 0 0-.56-.39H8.05a.6.6 0 0 0-.56.39l-.69 1.78c-.12.3-.4.51-.72.53l-1.97.13a.6.6 0 0 0-.5.42c-.05.2-1.13 4.8-1.13 6.62 0 1.36.62 5.62.66 5.86.07.49.2.86.69 1.07l3.15 1.36c.5.21.92.07 1.18-.31l1.13-1.7c.13-.2.32-.31.55-.31h3.04c.23 0 .42.11.55.31l1.13 1.7c.26.38.68.52 1.18.31l3.15-1.36c.49-.21.62-.58.69-1.07.04-.24.66-4.5.66-5.86 0-1.82-1.08-6.42-1.13-6.62ZM16.3 8.27c-.69.69-2.13 1.97-4.31 1.97-2.2 0-3.62-1.28-4.31-1.97a.55.55 0 0 1 .78-.78c.55.55 1.74 1.62 3.53 1.62 1.81 0 2.98-1.07 3.53-1.62a.55.55 0 1 1 .78.78Z"/>
    </symbol>

    <symbol id="icon-youtube" viewBox="0 0 24 24">
      <path fill="#FF0000" d="M23.5 6.2a3.02 3.02 0 0 0-2.12-2.14C19.5 3.55 12 3.55 12 3.55s-7.5 0-9.38.51A3.02 3.02 0 0 0 .5 6.2C0 8.07 0 12 0 12s0 3.93.5 5.8a3.02 3.02 0 0 0 2.12 2.14c1.88.51 9.38.51 9.38.51s7.5 0 9.38-.51a3.02 3.02 0 0 0 2.12-2.14C24 15.93 24 12 24 12s0-3.93-.5-5.8ZM9.6 15.6V8.4l6.27 3.6L9.6 15.6Z"/>
    </symbol>

    <symbol id="icon-devto" viewBox="0 0 24 24">
      <path fill="#0A0F1E" d="M7.42 10.05a1.2 1.2 0 0 0-1.2.04v3.82a1.2 1.2 0 0 0 1.2.04c.43-.16.6-.62.6-1.95 0-1.32-.17-1.78-.6-1.95Zm5.66-3.94c-.42-.16-3.92-.21-4.36 0-.44.21-.51.99-.51 5.9 0 5.86.07 5.66.51 5.9.44.24 3.94.19 4.36 0 .42-.19.51-.97.51-5.9 0-4.93-.09-5.71-.51-5.9Zm9.5 4.05a7.04 7.04 0 0 0-2.04-.51c-.81-.07-1.66 0-1.66 0v8.7h2v-3.06c1.71.13 2.71-.4 2.71-.4s.99-.43.99-2.41c0-1.95-.99-2.32-.99-2.32ZM20 12.84c-.21.13-.84.27-.84.27v-2.62s.55.04.84.18c.29.14.42.42.42.99 0 .7-.21 1.04-.42 1.18Z"/>
    </symbol>
  </defs>
</svg>
